<?xml version="1.0" standalone="no"?>
<!DOCTYPE svg PUBLIC "-//W3C//DTD SVG 20010904//EN"
 "http://www.w3.org/TR/2001/REC-SVG-20010904/DTD/svg10.dtd">
<svg version="1.0" xmlns="http://www.w3.org/2000/svg"
 width="788.000000pt" height="788.000000pt" viewBox="0 0 788.000000 788.000000"
 preserveAspectRatio="xMidYMid meet">

<g transform="translate(0.000000,788.000000) scale(0.100000,-0.100000)"
fill="#000000" stroke="none">
<path d="M2500 5910 l0 -290 765 0 765 0 0 290 0 290 -765 0 -765 0 0 -290z"/>
<path d="M3270 3415 l0 -285 285 0 285 0 0 285 0 285 -285 0 -285 0 0 -285z"/>
<path d="M4420 3415 l0 -284 288 -3 287 -3 -3 288 -3 287 -284 0 -285 0 0
-285z"/>
<path d="M1295 3395 c-361 -67 -631 -335 -699 -694 -99 -521 307 -1011 838
-1012 215 0 379 56 545 187 132 104 234 255 285 419 32 105 37 137 37 248 0
240 -89 449 -265 622 -196 193 -476 280 -741 230z m272 -433 c312 -98 411
-489 181 -720 -197 -198 -522 -163 -674 73 -86 135 -86 336 1 467 107 162 310
236 492 180z"/>
<path d="M6270 3391 c-270 -59 -479 -220 -601 -463 -56 -112 -80 -204 -86
-339 -6 -130 5 -215 43 -323 75 -217 230 -390 437 -491 300 -145 656 -106 915
102 137 111 246 277 294 450 18 64 22 105 22 223 0 129 -3 155 -28 235 -89
293 -313 512 -606 595 -109 31 -279 36 -390 11z m352 -453 c78 -38 152 -104
192 -173 67 -114 75 -278 19 -398 -130 -276 -488 -341 -701 -127 -227 229
-138 611 168 718 54 19 80 22 157 19 80 -4 101 -9 165 -39z"/>
<path d="M3850 2835 l0 -285 285 0 285 0 0 285 0 285 -285 0 -285 0 0 -285z"/>
</g>
</svg>
